<mxfile host="app.diagrams.net" agent="Mozilla/5.0 (Macintosh; Intel Mac OS X 10_15_7) AppleWebKit/537.36 (KHTML, like Gecko) Chrome/127.0.0.0 Safari/537.36" version="24.7.6">
  <diagram name="Page-1" id="75FMFFh-1psF9yN8DNfr">
    <mxGraphModel dx="1687" dy="2094" grid="1" gridSize="10" guides="1" tooltips="1" connect="1" arrows="1" fold="1" page="1" pageScale="1" pageWidth="827" pageHeight="1169" math="0" shadow="0">
      <root>
        <mxCell id="0" />
        <mxCell id="1" parent="0" />
        <mxCell id="eQefLc8UVpYLx0fe0Yvc-1" value="渠道接入网关" style="swimlane;whiteSpace=wrap;html=1;fillColor=#e1d5e7;strokeColor=#9673a6;" vertex="1" parent="1">
          <mxGeometry x="40" y="40" width="270" height="300" as="geometry" />
        </mxCell>
        <mxCell id="eQefLc8UVpYLx0fe0Yvc-6" style="edgeStyle=orthogonalEdgeStyle;rounded=0;orthogonalLoop=1;jettySize=auto;html=1;entryX=0.5;entryY=0;entryDx=0;entryDy=0;" edge="1" parent="eQefLc8UVpYLx0fe0Yvc-1" source="eQefLc8UVpYLx0fe0Yvc-2" target="eQefLc8UVpYLx0fe0Yvc-4">
          <mxGeometry relative="1" as="geometry" />
        </mxCell>
        <mxCell id="eQefLc8UVpYLx0fe0Yvc-2" value="SPI" style="rounded=0;whiteSpace=wrap;html=1;" vertex="1" parent="eQefLc8UVpYLx0fe0Yvc-1">
          <mxGeometry x="70" y="40" width="120" height="60" as="geometry" />
        </mxCell>
        <mxCell id="eQefLc8UVpYLx0fe0Yvc-7" style="edgeStyle=orthogonalEdgeStyle;rounded=0;orthogonalLoop=1;jettySize=auto;html=1;entryX=0.5;entryY=0;entryDx=0;entryDy=0;" edge="1" parent="eQefLc8UVpYLx0fe0Yvc-1" source="eQefLc8UVpYLx0fe0Yvc-4" target="eQefLc8UVpYLx0fe0Yvc-5">
          <mxGeometry relative="1" as="geometry" />
        </mxCell>
        <mxCell id="eQefLc8UVpYLx0fe0Yvc-4" value="Process" style="shape=process;whiteSpace=wrap;html=1;backgroundOutline=1;" vertex="1" parent="eQefLc8UVpYLx0fe0Yvc-1">
          <mxGeometry x="70" y="120" width="120" height="60" as="geometry" />
        </mxCell>
        <mxCell id="eQefLc8UVpYLx0fe0Yvc-5" value="API" style="shape=parallelogram;perimeter=parallelogramPerimeter;whiteSpace=wrap;html=1;fixedSize=1;" vertex="1" parent="eQefLc8UVpYLx0fe0Yvc-1">
          <mxGeometry x="70" y="200" width="120" height="60" as="geometry" />
        </mxCell>
        <mxCell id="eQefLc8UVpYLx0fe0Yvc-8" value="路由系统" style="swimlane;whiteSpace=wrap;html=1;" vertex="1" parent="1">
          <mxGeometry x="40" y="-200" width="270" height="200" as="geometry" />
        </mxCell>
        <mxCell id="eQefLc8UVpYLx0fe0Yvc-9" value="渠道分发" style="rhombus;whiteSpace=wrap;html=1;" vertex="1" parent="eQefLc8UVpYLx0fe0Yvc-8">
          <mxGeometry x="90" y="100" width="80" height="80" as="geometry" />
        </mxCell>
        <mxCell id="eQefLc8UVpYLx0fe0Yvc-10" style="edgeStyle=orthogonalEdgeStyle;rounded=0;orthogonalLoop=1;jettySize=auto;html=1;entryX=0.5;entryY=0;entryDx=0;entryDy=0;" edge="1" parent="1" source="eQefLc8UVpYLx0fe0Yvc-9" target="eQefLc8UVpYLx0fe0Yvc-2">
          <mxGeometry relative="1" as="geometry" />
        </mxCell>
        <mxCell id="eQefLc8UVpYLx0fe0Yvc-11" value="外部渠道" style="swimlane;whiteSpace=wrap;html=1;" vertex="1" parent="1">
          <mxGeometry x="40" y="385" width="270" height="200" as="geometry" />
        </mxCell>
        <mxCell id="eQefLc8UVpYLx0fe0Yvc-14" value="" style="aspect=fixed;sketch=0;html=1;dashed=0;whitespace=wrap;verticalLabelPosition=bottom;verticalAlign=top;fillColor=#2875E2;strokeColor=#ffffff;points=[[0.005,0.63,0],[0.1,0.2,0],[0.9,0.2,0],[0.5,0,0],[0.995,0.63,0],[0.72,0.99,0],[0.5,1,0],[0.28,0.99,0]];shape=mxgraph.kubernetes.icon2;kubernetesLabel=1;prIcon=api" vertex="1" parent="eQefLc8UVpYLx0fe0Yvc-11">
          <mxGeometry x="105" y="45" width="50" height="48" as="geometry" />
        </mxCell>
        <mxCell id="eQefLc8UVpYLx0fe0Yvc-15" style="edgeStyle=orthogonalEdgeStyle;rounded=0;orthogonalLoop=1;jettySize=auto;html=1;entryX=0.5;entryY=0;entryDx=0;entryDy=0;entryPerimeter=0;" edge="1" parent="1" source="eQefLc8UVpYLx0fe0Yvc-5" target="eQefLc8UVpYLx0fe0Yvc-14">
          <mxGeometry relative="1" as="geometry" />
        </mxCell>
      </root>
    </mxGraphModel>
  </diagram>
</mxfile>
